<svg width="823" height="823" viewBox="0 0 823 823" fill="none" xmlns="http://www.w3.org/2000/svg">
<path d="M360.667 553.533C360.667 567.183 366.075 580.274 375.702 589.926C385.329 599.578 398.386 605 412 605H501.833C539.273 605 575.179 590.088 601.653 563.546C628.127 537.003 643 501.004 643 463.467V219M813 411.5C813 633.242 633.242 813 411.5 813C189.758 813 10 633.242 10 411.5C10 189.758 189.758 10 411.5 10C633.242 10 813 189.758 813 411.5ZM206.667 296.2H514.667C521.474 296.2 528.002 298.911 532.816 303.737C537.629 308.563 540.333 315.108 540.333 321.933V437.733C540.333 454.796 533.573 471.159 521.539 483.224C509.506 495.289 493.185 502.067 476.167 502.067H463.333C449.719 502.067 436.662 496.644 427.035 486.992C417.408 477.341 412 464.25 412 450.6C412 436.95 406.592 423.859 396.965 414.208C387.338 404.556 374.281 399.133 360.667 399.133C347.052 399.133 333.995 404.556 324.369 414.208C314.742 423.859 309.333 436.95 309.333 450.6C309.333 464.25 303.925 477.341 294.298 486.992C284.671 496.644 271.614 502.067 258 502.067H245.167C228.149 502.067 211.828 495.289 199.794 483.224C187.76 471.159 181 454.796 181 437.733V321.933C181 315.108 183.704 308.563 188.518 303.737C193.331 298.911 199.859 296.2 206.667 296.2Z" stroke="#4BC3F5" stroke-width="20" stroke-linecap="round" stroke-linejoin="round"/>
</svg>
